<svg id="Capa_1" enable-background="new 0 0 506.442 506.442" height="512" viewBox="0 0 506.442 506.442" width="512" xmlns="http://www.w3.org/2000/svg"><g><path d="m230.138 59.22c-7.98 11.332-10.143 20.646-14.648 35.249l37.73 66.973c0-17.26 0-120.52 0-134.665-2.521 3.102-1.518 1.815-23.082 32.443z" fill="#b1dd0b"/><path d="m300.268 89.891c6.414-9.109 46.549-66.113 53.005-75.283-.133-.094-2.057-1.448-1.935-1.362-31.484-22.168-74.318-15.744-98.117 13.531l.197 134.665z" fill="#00cd70"/><path d="m215.721 438.942c-4.08 18.36-12.621 56.794-15 67.5h52.5l15-33.75-15-33.75-18.75-7.5z" fill="#af5f49"/><path d="m290.721 438.942-18.75-7.5-18.75 7.5v67.5h52.5c-4.08-18.36-12.621-56.793-15-67.5z" fill="#804231"/><path d="m215.721 371.442c-4.08 18.36-12.621 56.794-15 67.5h52.5l15-33.75-15-33.75-18.75-15z" fill="#c2715a"/><path d="m290.721 371.442-18.75-15-18.75 15v67.5h52.5c-4.08-18.36-12.621-56.793-15-67.5z" fill="#af5f49"/><path d="m215.721 303.942c-4.08 18.36-12.621 56.794-15 67.5h52.5l15-33.75-15-33.75-18.75-7.5z" fill="#af5f49"/><path d="m290.721 303.942-18.75-7.5-18.75 7.5v67.5h52.5c-4.08-18.36-12.621-56.793-15-67.5z" fill="#804231"/><path d="m215.721 236.442c-4.08 18.36-12.621 56.794-15 67.5h52.5l15-33.75-15-33.75-18.75-15z" fill="#c2715a"/><path d="m290.721 236.442-18.75-15-18.75 15v67.5h52.5c-4.08-18.36-12.621-56.793-15-67.5z" fill="#af5f49"/><path d="m253.221 146.442c-1.19-1.971-7.074-37.839-42.701-54.533-13.447-6.258-28.877-13.438-42.323-19.695-37.087-17.378-81.24-1.402-98.619 35.687-.047.101-.403.861-.356.761 5.106 2.346-26.379-12.116 101.299 46.531l82.701 75 15-34.375-15-34.375v-15.001z" fill="#00cd70"/><path d="m253.221 146.442c1.189-1.971 7.074-37.839 42.701-54.533 13.447-6.258 28.877-13.438 42.323-19.695 37.087-17.378 81.24-1.402 98.619 35.687.047.101.403.861.356.761-5.106 2.346 26.379-12.116-101.299 46.531l-82.701 75c.001-9.897.001-77.041.001-83.751z" fill="#009c86"/><path d="m448.221 230.192c0-41.42-33.577-75-75-75-14.305 0-30.695 0-45 0-41.42 0-75 33.578-75 75 0 .133 0 6.484 0 6.25h195c0-.133 0-6.484 0-6.25z" fill="#00cd70"/><path d="m253.221 236.442c-10.822 0-184.178 0-195 0 0-2.186 0-4.063 0-6.25 0-41.42 33.577-75 75-75 1.532 0 46.456 0 45 0 41.42 0 75 33.578 75 75 0 .133 0 6.484 0 6.25z" fill="#b1dd0b"/></g></svg>